<?xml version="1.0" encoding="utf-8"?>
<!-- Generator: Adobe Illustrator 24.1.2, SVG Export Plug-In . SVG Version: 6.00 Build 0)  -->
<svg version="1.1" id="图层_1" xmlns="http://www.w3.org/2000/svg" xmlns:xlink="http://www.w3.org/1999/xlink" x="0px" y="0px"
	 viewBox="0 0 200.4 66.5" style="enable-background:new 0 0 200.4 66.5;" xml:space="preserve">
<style type="text/css">
	.st0{fill:#02489D;}
</style>
<g id="surface1">
	<path class="st0" d="M35.87,14.97c0,0-0.99-1.1-2.3-1.1c0,0-2.86,0-4.81,6.2c0,0-1.66,5.42-1.66,13.46c0,0,0,7.58,1.56,12.93
		c0,0,1.56,5.42,3.82,5.42c0,0,1.59,0,2.94-2.98c0,0,1.34-2.97,1.91-7.83l4.25-1.06c0,0-1.1,9.03-4.49,14.88c0,0-3.5,5.88-7.92,5.88
		c0,0-5.3,0-9.05-7.97c0,0-3.75-7.97-3.75-19.27c0,0,0-11.3,3.75-19.34c0,0,3.75-8.01,9.05-8.01c0,0,5.31,0,9.09,8.15L35.87,14.97"
		/>
	<path class="st0" d="M50.8,25.85c0,0-7.32,6.06-18.99,9c0,0-11.71,2.9-21.01,0.99c0,0-9.3-1.98-10.68-7.69c0,0-1.17-4.75,3.96-9.99
		c0,0,5.06-5.21,14.15-8.68l0.6,2.34c0,0-5.3,2.27-8.24,5.14c0,0-3.01,3.01-2.33,5.6c0,0,0.88,3.29,7.11,4.29
		c0,0,6.19,0.96,14.22-1.03c0,0,7.96-1.98,13.05-5.77c0,0,5.02-3.83,4.17-7.16c0,0-0.71-2.87-5.8-4.11l-0.78-3.05
		c0,0,6.61,0.25,11,2.44c0,0,4.49,2.2,5.41,5.92C56.63,14.08,58.08,19.75,50.8,25.85"/>
	<path class="st0" d="M92.67,13.06v0.07l0.28,0.11l0.35-0.11l0.18-0.11l0.35,0.04c0,0,0.42,0.11,0.78,0h0.11l-1.77-0.21L92.67,13.06
		"/>
	<path class="st0" d="M81.6,6.96c-0.11,0.11-0.25,0.14-0.25,0.14l0.46,1.06h-0.32l0.32,1.03c0.21,1.17,0.21,3.47,0.21,3.47
		l-0.14,0.6l-0.18,0.64l0.11,1.17c-0.04,0.46-0.57,0.99-0.57,0.99v0.57c-2.05,0.74-2.33,1.13-2.33,1.13l-1.1,0.32
		c-0.49,0.32-1.52,0.71-1.52,0.71c-0.67,0.67-1.38,0.78-1.38,0.78l-0.11,0.07H74.7v0.04h-0.28c0.39-0.78,0-1.59,0-1.59l-0.25-0.42
		l-0.28-1.06c-0.25-0.85-0.42-0.92-0.42-0.92l-0.32,0.5l-0.25,0.64h-0.21l-0.46,1.17l-0.42,1.06l-0.57,1.56
		c0.04,0.18-0.64,1.56-0.64,1.56l-0.28,0.28c0,0.99-0.42,1.28-0.42,1.28l-0.28,0.71c-0.21,0.53-0.25,0.46-0.25,0.46
		c0.04,0.28-0.18,1.77-0.18,1.77c-0.11,1.49,0.39,1.77,0.39,1.77c0.21,0.32,0.11,0.43,0.11,0.43l0.53,1.06l0.18-0.04l0.21,0.35
		c0.35,0.82,1.1,0.6,1.1,0.6l1.34-0.39l0.28,1.2c0.14,0.78,0.43,0.99,0.43,0.99l1.03,0.21l1.06,0.11l1.03-0.46l2.3-0.53
		c1.48-0.32,2.23-0.71,2.23-0.71c0.6,1.13,0.49,2.05,0.49,2.05l-0.11,1.84l0.21,0.78l0.14,0.74l0.07,3.44l0.35,1.06l-0.14,0.42v1.28
		l0.35,1.06l0.11,1.2h0.21l-0.11-1.1l0.39,0.07l0.07,0.53l0.11-0.04l-0.07-0.67c-0.39-0.14-0.39-0.85-0.39-0.85
		c0-0.64,0.28-1.06,0.28-1.06c0.21,0.07,0.53,1.24,0.53,1.24c0.28,0.89,0.32,1.45,0.32,1.45h0.74v0.32l-0.21-0.18
		c-0.35,0.21-0.43,1.34-0.43,1.34c-0.04,1.14,0.18,1.17,0.18,1.17c0.11,0,0.67-0.42,0.67-0.42l-0.14,0.21v0.11h0.21l0.1,0.6
		c0.25,0,0.25-1.45,0.25-1.45h0.14l0.25,0.21l0.11-0.11v-1.38l0.28,0.25l0.35-0.32l0.21-0.46c0.07-0.32-0.1-1.24-0.1-1.24
		c0.28-1.42,0.32-2.16,0.32-2.16v-0.78l1.03-2.3c0.28-0.89,0.32-2.3,0.32-2.3l0.1-2.37l0.43-0.6c0.39-0.35,0.42-0.57,0.42-0.57
		l0.81-2.3c0.64-1.67,1.06-1.84,1.06-1.84l2.05-0.46c1.34-0.43,1.24-1.14,1.24-1.14c0.67,0,0.96-2.94,0.96-2.94l0.57-2.91l0.49-0.96
		l0.21-2.23l0.39-2.2c0.1-1.03-0.49-1.52-0.49-1.52c-0.39-0.35-1.49-0.64-1.49-0.64l-0.11,0.07c0.25,0.14,0.78,0.32,0.78,0.32
		c0.49,0.25,0.6,0.64,0.6,0.64c0.14,0.57-0.21,1.49-0.21,1.49c-0.32,0.82-0.85,1.28-0.85,1.28l0.04,0.39
		c-0.14,0.5-0.95,1.45-0.95,1.45l-1.13,1.56l-0.99,0.64c-1.34,0.04-1.77,0.46-1.77,0.46l-0.18-0.14c-0.21-0.32-0.21-1.95-0.21-1.95
		l-0.14-1.28c0.21-0.32,0.21-0.53,0.21-0.53v-0.71c0.35-0.42,2.44-1.2,2.44-1.2c1.87-0.78,2.09-1.52,2.09-1.52l0.11,0.1
		c-0.04,0.32,0.28,0.39,0.28,0.39c0-0.53,0.35-0.53,0.35-0.53l0.74,0.14v-0.1l-1.2-0.53c0,0.28-0.21,0.28-0.21,0.28l-0.46-0.07
		l-0.04,0.21l0.18,0.11l-0.25,0.39h-0.11c0-0.18-0.67-0.18-0.67-0.18l0.21-0.78c-0.6-0.28-0.64,0.25-0.64,0.25h-0.07l-0.11-0.21
		h-0.1l-0.04,0.18h-0.43l-0.28,0.32l-0.32-0.11l0.21-0.21l-0.21-0.43c0.42,0,0.64-0.49,0.64-0.49l-2.62,0.18
		c0,0.35,0.74,0.25,0.74,0.25c0.81-0.11,0.92,0.18,0.92,0.18l-0.81-0.07l-0.74,0.11l-0.11,0.32l-0.21-0.14l-0.21-0.18l-0.53-0.21
		c-0.32,0.21-0.49,0.18-0.49,0.18l-0.35-0.21l-0.35-0.35c-0.42-0.32-2.3-3.51-2.3-3.51C84.01,7.07,81.6,6.96,81.6,6.96z
		 M81.25,19.96l0.42,1.7l0.25,1.14c0.21,0.71,0.11,1.17,0.11,1.17l-0.67,0.99l-0.81,1.06c-0.95,0.6-1.66,0.81-1.66,0.81l-1.8,0.25
		c-0.89,0.11-1.88,1.03-1.88,1.03c-0.99,0.85-1.34,0.82-1.34,0.82c-0.18,0.1-0.39,0.14-0.39,0.14c-0.21-0.53,0.21-0.85,0.21-0.85
		c-0.14-0.21,0.11-0.81,0.11-0.81l0.53-0.64l0.39-0.74l0.21-0.92c0.39-0.25,0.32-0.53,0.32-0.53l1.84-2.13l2.23-0.99
		C80.89,20.78,81.25,19.96,81.25,19.96z"/>
	<path class="st0" d="M117.43,12.84l1.38-0.53l1.42-0.39l1.27-0.14l0.53-0.21l1.45-0.07l1.45,0.07l0.57,0.04l0.6,0.21l0.42,0.64
		l0.49,0.92c0,0-0.28,1.38,0,1.67c0,0-0.21,0.42-0.32,3.15l-0.28,2.94l-0.21,2.09l0.18,2.94c0,0,0,0.57-0.28,1.52
		c0,0,0.32,1.49,0,1.81c0,0,0.71,4.46,0.6,4.71l-0.39,0.96l-0.32,0.92l-0.04,0.53l0.14,0.18l-0.11,0.64l0.07,0.6
		c0,0-0.07,0.46-0.28,0.46l-0.53-0.35l-0.42-0.5v-0.04c0,0-0.92-0.78-1.34-0.57c0,0,0,1.31,0.85,2.62l0.18,0.11
		c0,0,0.1,0.6,1.1,2.16l0.1,0.21l0.81,2.41c0,0,0.6,0.85,2.94,1.91l0.21-0.04v-0.18c0,0,0.21,0,0.71-0.57c0,0,0.64-0.81,0.71-1.74
		v-1.81l0.21-1.28v-1.31l-0.32-1.17c0,0-0.18-0.92,0.21-1.06c0,0,0-1.88-0.18-1.99c0,0,0.32-1.45,0.11-3.12l0.07-1.31v-1.35
		l-0.21-2.94l-0.07-3.01l-0.11-2.69l-0.32-2.55c0,0,0.11-0.74,0.28-1.03c0,0-0.11-0.43,0.04-1.77c0,0-0.46-0.04-0.21-1.7l0.32-2.06
		c0,0-0.11-0.53-1.03-1.7l-1.31-1.45c0,0-0.81-0.43-1.24-0.32l-2.83,0.43c0,0-1.98,0.21-2.51,0.81l-0.71-0.07l-0.74,0.18l-0.11,0.11
		l-1.34,0.14l-1.06,0.21h-0.39l-1.38,0.49l-1.24,0.6l-1.24,0.46c0,0-1.1,0.92-1.66,0.81c0,0-2.4,0.6-3.36,1.17c0,0,0,0.07,0.64,0.21
		c0,0,0.64,0.18,0.71,0.53l0.71,0.21c0,0,1.7,0.28,2.65-0.35c0,0,0.21,0.11,1.41-0.42c0,0,0.25-0.32,0.85-0.32l0.74-0.43
		L117.43,12.84"/>
	<path class="st0" d="M86.41,45.58l-0.03,1.45c0,0,0.25,0,0.25-0.67C86.62,46.36,86.69,45.72,86.41,45.58"/>
	<path class="st0" d="M83.3,46.36l0.18,0.6h0.07l0.14-0.32V46h-0.1l-0.04,0.04l0.11-0.35l-0.5-0.28
		C83.16,45.4,83.05,45.72,83.3,46.36"/>
	<path class="st0" d="M84.01,47.38l0.07-0.1c0,0,0.11-1.06-0.11-1.28c0,0-0.28,0.25-0.07,1.38H84.01"/>
	<path class="st0" d="M83.26,49.86v3.97h3.32v-3.97h2.87v9.53h-2.87v-4.07h-3.32v4.07h-2.9v-9.53H83.26"/>
	<path class="st0" d="M73.54,52.1c0,0-0.85,0.85-0.85,2.52v0.11c0,0,0,1.73,0.78,2.58c0,0,0.92,0.82,2.26,0.82l1.66-0.18l1.06-0.25
		v1.42l-1.06,0.32l-1.84,0.11c0,0-2.62,0-4.28-1.17c0,0-1.59-1.17-1.59-3.47v-0.42c0,0,0-2.16,1.66-3.44c0,0,1.66-1.35,4.17-1.35
		l1.8,0.11l1.13,0.28v1.49l-1.03-0.25l-1.45-0.11C75.98,51.21,74.42,51.21,73.54,52.1"/>
	<path class="st0" d="M123.4,24.89c0,0,0.07,0.6-0.64,1.38l-0.21,0.28l-0.04,0.11l-0.21,0.43l-0.11,0.5l-0.32,0.21l-0.1,0.21
		l0.1,0.04c0,0,0.35,0.11,0.96-0.21l0.57-0.14l0.67-0.07l0.46-0.04l0.28-0.07c0,0,0.64,0.21,1.13-0.53l0.11-0.96l-0.11-0.53
		l-0.18-0.39L125.56,25l-0.32-0.14l-0.74-0.07l-0.11-0.11l-0.71-0.32l-0.53-0.21L123.4,24.89"/>
	<path class="st0" d="M120.96,14.3l-0.92,0.25l-1.03,0.21l-1.95,0.43l-0.99,0.57l-0.85,0.21c0,0-0.14,0.11-0.35,0.14l-0.39,0.07
		l-0.39,0.11l-1.42,0.64l-0.71,0.43l-0.49,0.11l-0.14,0.11l-0.07,0.07l-0.25,0.32l-0.49,0.25l-0.6,0.43c0,0-1.1,0-0.88,0.81h0.21
		c0,0,0,0.14,1.34,0.71l0.04,0.64c0,0,0.11,0.46,0.42,0.67h1.42l0.46,0.07h0.74c0,0,0.21,0,0.21,0.14l0.11,0.71l0.07,0.53L114,23.72
		l-0.25,0.53l-0.6,0.11l-0.46,0.28l-1.34,0.53l-0.53,0.42L110,26.13l-0.42,0.42l0.04,0.18v0.14l-0.42,0.39l0.07,0.43l0.14,0.1
		l0.49,0.46l0.71,0.11l0.32,0.57l0.42,0.42l0.53,0.11l0.42-0.07l-0.07,0.32c0,0-0.14,0.32,0,0.32l-0.21,0.71l-0.25,0.5l-0.11,0.25
		l-0.64,0.5l-0.32,0.43l-0.32,0.57v0.25l-0.25,0.53l-0.21,0.32v0.43l0.28,0.78l0.32,0.5c0,0,0.21,0.28,0.28,0.21
		c0,0,0,0.07,0.35,0.21c0,0,0.74,0.11,1.17,0l1.45-0.32l0.81-0.43l1.45-0.49l0.32-0.25c0,0,0.21,0,1.06-0.64c0,0,0.18,0.11,0.6-0.32
		c0,0,0,0.04,0.56-0.28l0.5-0.14c0,0,0.28-0.11,0.53-0.28l0.71-0.21l0.96-0.64l0.71-0.6c0,0,0.35-0.21,0.46-0.64l0.18-0.32
		l0.11-0.18h-0.42c0,0-0.28,0-0.11-0.42l0.25-0.46l-0.85-0.07c0,0-0.53,0-0.53-0.21l-1.48,0.11l0.14-0.57l0.07-0.46l0.21-0.57
		c0,0-0.18,0-0.18-0.32l0.21-0.18l0.39-0.04l0.85-1.2l0.92-0.96l0.04-0.25l0.21-0.43v-0.46l-0.1-0.53l-0.57-0.57l-1.03-0.71
		l-0.43-0.21l-0.18-0.18l-0.35-0.25l0.11-0.18c0,0,0-0.46,0.25-0.99l1.06-1.14c0,0,0.28,0,0.78-1.03l0.35-0.46l0.1-0.46l-0.04-0.46
		l0.11-0.32l-0.07-0.5l-0.53-0.92l-0.25-0.35C121.67,14.72,121.67,14.3,120.96,14.3"/>
	<path class="st0" d="M112.19,38.49l-0.81,0.21h-1.24l-0.57,0.1l-0.64-0.04l0.67,1.49c0,0,0.67,1.24,0.88,1.28l0.64,0.18l0.99-0.28
		c0,0,0.71-0.14,0.81-0.35h0.21c0,0,0.92-0.21,1.13-0.53l1.13-0.28l1.06-0.49l0.49-0.14l0.78-0.39l0.85-0.53l2.19-1.56
		c0,0,0.89-0.57,2.9-1.52l0.49-0.46v-0.1h-0.32c0,0-0.28,0.21-1.42,0.49l-1.06,0.43l-0.32,0.07l-0.95,0.35l-1.1,0.18l-1.49,0.64
		l-0.74,0.14l-0.74,0.35l-0.42,0.04l-1.03,0.21c0,0-0.85,0.43-1.06,0.5l-0.49-0.11L112.19,38.49"/>
	<path class="st0" d="M106.96,15.75l-0.32,0.96c0,0-0.18,0.53-0.1,1.14l0.1,0.42v1.49l0.11,0.92l-0.18,0.67l-0.04,1.13l-0.21,0.49
		L106,24.32l0.1,0.25v1.13l-0.18,0.64v0.49l-0.11,0.99l-0.18,0.71l-0.14,2.23h-0.07l-0.11,0.67l-0.25,0.57c0,0-0.11,0.81,0.11,1.31
		l0.04,0.67l0.07,0.92c0,0,0.04,0.49-0.18,0.74l-0.11,0.85c0,0-0.1,1.95,1.03,2.91c0,0,0.39,0.35,0.71,0.25l0.25-0.32
		c0,0,0.42-0.57,0.42-1.59l-0.14-1.7l-0.11-0.5l0.21-1.59c0,0,0-0.71,0.11-0.99c0,0-0.53-0.35-0.18-2.05l0.07-0.99l0.04-0.64
		c0,0,0.11-0.53,0.18-0.53l0.1-0.53l0.11-0.39l0.53-2.52l0.49-1.45v-0.25l-0.21-0.39v-0.57l0.14-0.39l0.18-0.85h-0.07l0.07-0.64
		l-0.07-0.64c0,0-0.25,0-0.25-1.74l-0.32-1.03l-0.28-0.32l-0.32-0.64l-0.32-0.99l-0.28-0.25L106.96,15.75"/>
	<path class="st0" d="M94.12,13.98l0.04-0.21l-0.14-0.28v0.43L94.12,13.98"/>
	<path class="st0" d="M94.72,13.66l-0.49-0.18v0.18H94.72"/>
	<path class="st0" d="M107.91,49.86v9.53h-1.24l-6.4-5.99v5.99h-2.09v-9.53h1.56l6.15,5.67v-5.67H107.91"/>
	<path class="st0" d="M95.36,49.86v9.53h-2.9v-9.53H95.36"/>
	<path class="st0" d="M113.36,49.86l-4.31,9.53h2.33l0.95-2.27h4.28l0.92,2.27h3.01l-4.49-9.53H113.36z M114.42,52.2l1.63,3.54
		h-3.11L114.42,52.2z"/>
	<path class="st0" d="M125.03,49.86h8.56v1.38h-2.79v8.15h-2.9v-8.15h-2.86V49.86"/>
	<path class="st0" d="M187.53,12.21l0.39-0.49l0.39,0.07l0.25-0.07l1.17-0.11c0,0,0.07,0.21-1.06,0.21l-0.64,0.28l0.39,0.21
		l1.2,0.14c0,0,0.39,0.07,0.92,0.5l0.71,0.74l-0.53,0.6l-0.46,0.21l-0.46,0.04l-1.84,0.39l-1.41,0.11l-1.13,0.32l-2.37,0.28
		l-0.99,0.32l-0.6,0.35h-0.1l-0.11-0.21l-0.28,0.28c0,0-0.11,0.21-0.11,0.53c0,0,0,0.46,0.28,0.64l0.64,0.18
		c0,0,0.42,0.21,0.64,0.21l1.34-0.39l1.45-0.28l1.34-0.35l2.19-0.32l6.93-0.18l1.77-0.25l0.53,0.11l0.49,0.04
		c0,0,0.64-0.32,0.85-0.21l0.07-0.35v-0.71l0.43-0.28c0,0,0.85-0.57,0.53-0.99l-1.13-0.32l-1.27,0.04h-1.84c0,0-0.67,0-0.64-0.35
		l0.07-0.49c0,0-0.21-0.64-0.11-0.85l-0.07-1.1l-0.71-0.53l-0.42-0.04l-0.46-0.39l-1.98-0.85l-0.74-0.21l-0.42,0.11l-0.67,1.13
		l-0.04,0.11l-0.39-0.11l-0.46,0.32l0.04,0.04l-0.25,0.18l-0.81,0.6c0,0-0.49,0.46-0.11,0.35h0.11l-0.21,0.18l-1.03,0.35l-0.11,0.32
		l0.28,0.11L187.53,12.21"/>
	<path class="st0" d="M150.11,11.78L150,12.95c0,0-0.6,0.96-0.74,1.45c0,0-0.49,3.79-0.81,4.18l-0.6,0.53l-0.67,0.32l-0.74,0.5
		l-1.84,1.31l-0.04,0.07l0.74,0.11l0.42,0.46l0.85-0.25l0.92-0.1l0.03,0.71l0.18,0.25l-0.6,0.96c0,0,0,0.81-2.86,2.73
		c0,0-0.11-0.32,0-1.42l0.21-1.45l-0.07-0.6l-0.42-0.75c0,0-0.49-0.64-0.53-0.92c0,0-0.6-0.11-0.64-0.64l-0.32-0.64
		c0,0-0.11,0-0.28,0.64l-0.32,0.75l-0.11,0.39l-0.11,0.04c0,0,0,0.32-0.42,0.89l-0.42,0.74c0,0-0.11,0.46,0,2.55l-0.18,2.09
		l-0.32,2.06l-0.43,1.38c0,0-0.32,0.71,0,1.49c0,0,0.18,0.32,0.85,0.71c0,0,0.67,0.32,1.03,0.39l0.42,0.46c0,0,0.21,0.53,0.39,0.6
		l1.06,0.74l1.03,0.18l0.85,0.32l0.6,2.44c0,0,0.53,2.09,1.2,2.3h0.07c0,0,0.04,0.21,0.42,0.49l0.53,0.32c0,0,0.95,0.64,1.7,0.85
		l1.87,0.28l1.63,0.04l1.88,0.18c0,0,1.59-0.18,1.77-0.5l1.63-0.21c0,0,1.77-0.43,1.66-0.6l0.21-0.04l3.18-0.81l0.78-0.32h-0.14
		l0.14-0.32h0.11l-0.04-0.21h0.11l0.11,0.11l0.04-0.11l-0.04-0.1l0.14-0.21l-0.14,0.04l0.25-0.46l0.39-0.39h0.04v0.21l0.28-0.35
		h0.07v0.04l-0.14,0.11l0.07,0.11c0,0-0.07,0.11,0.07,0.07l0.04-0.21l0.18-0.11l0.04,0.04l0.18-0.21l0.11-0.04v-0.32l-0.21-0.11
		l-0.11,0.14v-0.25l-0.1-0.07v0.11l-0.11-0.04v-0.18l-0.14-0.14l0.25-0.18l-0.07-0.11l-0.28,0.28l0.11-0.35h0.18l0.07-0.11
		l-0.46-0.04l-0.14,0.11l-0.07-0.07l0.07-0.25l-0.32-0.07l0.21-0.11l-0.11-0.11v-0.11l0.14,0.07v-0.07l-0.21-0.21l-0.04,0.07
		l-0.18-0.21l-0.04-0.07l-0.21,0.07l-0.07-0.11v0.14h0.18v0.32h-0.07l-0.21-0.42l-0.1-0.04l-0.11,0.04l0.21-0.14h0.07l-0.39-0.07
		c0,0-0.21,0-0.25,0.18l-0.39,0.21l-0.6,0.43l-0.64,0.14l-0.64,0.28l-2.09,0.39l-1.77,0.53l-0.64,0.11l-3.43,0.35l-0.88-0.32
		c0,0-0.18,0-0.28-0.14l-0.11-0.39c0,0-0.71-1.45-0.6-1.81l0.99-1.31l0.53-0.46c0,0,0.35-0.28,0.95-0.21l0.6-0.1l0.74-0.11
		l0.46-0.28l0.6-0.11l0.6-0.14l0.57-0.14l2.41-0.32l0.32-0.25l0.28-0.43l0.49-0.71c0,0,0.53-0.43,0.57-0.85v-0.53l0.18-0.64
		l-0.53-1.24l-0.57-1.17l1.03-2.62l0.18-0.67c0,0,0.14-0.53,0.32-0.53l0.14-0.74l0.18-0.81c0,0,0.21-0.46,0.14-0.75l-0.11-0.67
		l0.11-0.46l-0.14-0.53c0,0-0.21-0.32-0.21-0.53l-0.53-0.78l-0.43-1.2c0,0-0.21-0.53-1.1-0.89l-0.14,0.11l-0.81-0.32
		c0,0-0.53-0.35-1.03-0.21l-1.1-0.18l-1.94,0.92l-2.12,1.17h-0.64l0.42-2.73c0,0,0.11-1.45-1.42-2.16l-0.85-0.43L150.11,11.78z
		 M156.69,18.26l1.59,0.35l-0.04,0.21l0.32,0.42v0.32c0,0,0,0.28-0.42,0.71h-0.6c0,0-1.66,1.17-2.65,1.38l-0.81,0.11h-0.39
		c0,0-0.42,0.11-0.88,0c0,0-0.67-0.11-0.78-0.46l0.11-0.75c0,0,0.18-0.53,0.32-0.6c0,0,0-0.28,0.5-0.5l0.49-0.21
		c0,0,0.42-0.21,1.2-0.42l0.6-0.32l0.81-0.21L156.69,18.26z M157,24.36l0.11,0.11c0,0,0.18,0.18,0.07,0.39l-0.35,1.7l-0.25,0.43
		c0,0-0.28,0.39-1.7,1.03c0,0-1.45,0.96-2.26,0.35l-0.28-0.74l0.18-0.57c0,0-0.07-0.5,0.07-0.78l0.46-0.53l1.17-0.64l1.52-0.53
		L157,24.36z M145.51,28.04l0.71,0.28c0,0,0.32,0.32,0.11,1.28l-0.43,1.31l-0.07,0.25l-0.32,0.49l-0.74,0.14c0,0-0.21,0-0.92,0.39
		c0,0-0.32,0.21-0.71,0.35l-0.25,0.28l-0.07-0.07l0.28-0.89L143,31.34l0.14-0.5l0.07-0.5l0.43-1.17l0.18-0.53h0.04
		c0,0,0.39,0,0.92-0.32l0.74-0.21V28.04z"/>
	<path class="st0" d="M176.21,15.75v0.32c0,0-0.42,1.28-0.42,1.88l-0.71,1.1l-0.11,0.39l-0.21,0.43l-0.6,1.28l-0.96,2.09l-0.53,0.64
		l-0.81,1.24l-0.25,0.81l-0.28,0.85l0.07,0.82l0.04,1.24c0,0,0.18,0.11,0.28,0.14l0.35,0.53l0.07,1.13l-0.07,1.17l0.18-0.25
		l0.14-0.42v-0.07h0.07l0.04,0.07l-0.11,0.21l0.07,0.1h0.11l0.18-0.32l0.32-0.99l0.57-0.64l0.32-0.21l2.19-2.13
		c0,0,0.64-0.21,1.03,0.67l0.11,0.82l0.21,1.59v2.06l-0.25,1.17l-0.25,2.09l-0.32,0.96l-0.42,2.48l-0.04,2.66c0,0,0,1.13,1.06,1.24
		l0.49-0.57c0,0,0.78,0.04,0.46-0.39V41.5l0.42-0.32h0.39l0.53-0.85l0.21-1.63l0.32-3.54l0.11-1.2l0.21-1.2l0.39-4.71
		c0,0-0.18-1.06-0.11-1.49l0.32-0.74c0,0,0.14-0.32,0.14-1.17l-0.11-0.39l-0.32-0.28l-0.32-0.35c0,0-0.25-0.11-0.57-0.28l-1.03-0.46
		l-0.64,0.14l0.14-0.64l0.21-0.53l0.07-1.06l0.14-0.53c0,0,0.07-0.71-0.35-1.63l-0.74-1.49l-0.07-0.43l-0.35-0.92l-0.81-0.71
		L176.21,15.75"/>
	<path class="st0" d="M147.74,49.86v8.15h4.77v1.38h-7.64v-9.53H147.74"/>
	<path class="st0" d="M137.8,51.25v2.62h3.82v1.45h-3.82v2.69h5.24v1.38h-8.1v-9.53h7.78v1.38H137.8"/>
	<path class="st0" d="M154.42,49.86h7.82v1.38h-4.92v2.62h3.78v1.45h-3.78v2.69h5.3v1.38h-8.21V49.86"/>
	<path class="st0" d="M167.69,52.1c0,0-0.89,0.92-0.89,2.52v0.11c0,0,0,1.73,0.78,2.58c0,0,0.99,0.82,2.26,0.82l1.66-0.18l1.06-0.25
		v1.42l-1.06,0.32l-1.84,0.11c0,0-2.65,0-4.21-1.17c0,0-1.66-1.17-1.66-3.47v-0.42c0,0,0-2.16,1.66-3.44c0,0,1.66-1.35,4.21-1.35
		l1.77,0.11l1.13,0.28v1.49l-0.96-0.25l-1.45-0.11C170.16,51.21,168.6,51.21,167.69,52.1"/>
	<path class="st0" d="M179.18,49.69c0,0-2.62,0-3.92,1.35c0,0-1.42,1.34-1.42,3.37v0.53c0,0,0,2.2,1.52,3.44
		c0,0,1.38,1.17,3.79,1.17c0,0,2.4,0,3.78-1.17c0,0,1.52-1.24,1.52-3.44V54.4c0,0,0-2.02-1.42-3.37
		C183.03,51.04,181.76,49.69,179.18,49.69z M179.14,51.1c0,0,1.56,0,1.91,0.78c0,0,0.42,0.96,0.42,2.62v0.28c0,0,0,1.7-0.53,2.62
		c0,0-0.53,0.82-1.8,0.82c0,0-1.49,0-1.91-0.78c0,0-0.46-0.64-0.46-2.66v-0.28c0,0,0-1.91,0.49-2.66
		C177.27,51.85,177.66,51.1,179.14,51.1z"/>
	<path class="st0" d="M194.53,18.37h-1.06c0,0-0.74,0-1.06-0.21h-1.34l-1.13,0.32l-1.06,0.43c0,0-0.21,0.04-0.32,0.32
		c0,0-0.14,0.35,0.07,0.75c0,0,0.25,0.32,0.67,0.42l1.34,0.71l0.32,0.32l1.87,0.85l0.92,0.21h1.27l0.43,0.18c0,0,0.21,0.11,0.39,0
		c0,0,0.25-0.18,0.67-1.03l0.28-0.32v-0.43l0.04-0.5l-0.46-0.42l-0.28-0.71c0,0-0.46-0.14-0.67-0.25l-0.42-0.43L194.53,18.37"/>
	<path class="st0" d="M189.36,23.72l-2.16,0.35l-0.04,0.25c0,0-0.11,0.21,0,0.46l0.35,0.71l0.53,0.67l0.99,0.81
		c0,0,0.25,0.28,0.74,0.39l1.06,0.04l0.92,0.18c0,0,0.43,0.04,1.17,0.46l0.74-0.11h0.53l0.53-0.25c0,0,0.57-0.11,0.6-0.18
		c0,0,0.28-0.11,0.53-0.57l0.32-0.81v-0.32l0.07-0.28c0,0,0.04-0.21,0.32-0.32l0.35-0.21v-0.75c0,0,0-0.11-0.53-0.21l-0.67-0.07
		l-0.74,0.1l-2.05-0.46l-1.13-0.07L189.36,23.72"/>
	<path class="st0" d="M184.38,32.61l0.32,1.45c0,0-0.14,0.85-0.04,1.59l0.04,1.7l-0.04,1.24l0.57,2.37l0.11,0.25v0.89
		c0,0,0.11,0.46,0.49,0.64l0.64,0.14l0.85,0.39l0.28,0.35c0,0,0.14,0.21,0.35,0.18c0,0,0.18-0.07,0.18-0.53l0.42-0.75l0.07-0.81
		l0.21-0.85l0.14-0.6l0.32-2.9l-0.14-0.43l-0.28-0.43l0.07-0.57v-0.53l0.1-0.07l1.59,0.07l0.6-0.67c0,0,0.89-0.85,1.45-1.06
		l0.25,0.39c0,0,0.21,0.57,0.07,1.45l-1.2,1.38l-0.74,0.74c0,0-0.46,0.39-0.57,0.85l-0.25,0.18l-0.04,0.35l-0.07,0.99
		c0,0,0,0.85,0.11,1.06l0.46,0.32l0.53,0.21l0.43,0.35l1.7,0.14l1.77-0.35l1.03,0.21l1.34-0.04l0.57-0.32l0.42-0.18l0.39-0.42v-0.57
		l0.11-1.31l-0.49-0.25l-0.11-0.07l-0.57-0.46l-0.07-0.43l0.81-2.16l0.04-1.17c0,0-0.14-0.28,0.07-0.85v-1.1l-0.6-0.67l-0.64-0.96
		l-0.74-0.6l-0.32-0.28l-0.85-0.21l-0.89,0.07l-0.46-0.21l-1.66,1.13l-3.32,1.63l-0.42,0.18l-0.42,0.11c0,0-0.43,0-0.6-0.18
		l-0.35-0.42l-0.32-0.35l-0.21-0.53l-0.64-0.28l-0.67-0.28c0,0-0.32-0.14-0.46-0.46l-0.18-0.21l-0.25,0.1l-0.21,1.35L184.38,32.61"
		/>
	<path class="st0" d="M187.95,59.4H186v-9.53h2.12l4.81,6.95l4.92-6.95h1.88v9.53h-2.62v-5.46l-3.89,5.46h-1.56l-3.71-5.46V59.4"/>
</g>
</svg>
