<?xml version="1.0" encoding="utf-8"?>
<!-- Generator: Adobe Illustrator 24.1.2, SVG Export Plug-In . SVG Version: 6.00 Build 0)  -->
<svg version="1.1" id="图层_1" xmlns="http://www.w3.org/2000/svg" xmlns:xlink="http://www.w3.org/1999/xlink" x="0px" y="0px"
	 viewBox="0 0 200.4 66.5" style="enable-background:new 0 0 200.4 66.5;" xml:space="preserve">
<style type="text/css">
	.st0{fill:#373535;}
	.st1{fill-rule:evenodd;clip-rule:evenodd;fill:#373535;}
	.st2{fill-rule:evenodd;clip-rule:evenodd;fill:#387EB8;}
	.st3{clip-path:url(#SVGID_2_);fill-rule:evenodd;clip-rule:evenodd;fill:#387EB8;}
	.st4{clip-path:url(#SVGID_4_);fill:#387EB8;}
</style>
<g>
	<polygon class="st0" points="56.04,17.02 53.71,28.67 41.34,28.67 43.52,17.02 33.77,17.02 26.93,48.02 36.97,48.02 39.74,35.5 
		52.25,35.5 49.05,47.87 59.38,47.87 66.22,17.02 	"/>
	<polygon class="st1" points="69.71,17.02 79.61,17.02 72.77,47.87 62.73,47.87 	"/>
	<polygon class="st1" points="89.65,17.02 101.15,17.02 87.32,31.28 95.47,47.73 83.54,47.73 76.7,31.72 	"/>
	<polygon class="st2" points="105.37,17.02 115.26,17.02 108.57,47.87 98.38,47.87 	"/>
	<g>
		<g>
			<defs>
				<rect id="SVGID_1_" x="26.93" y="0" width="146.54" height="66.5"/>
			</defs>
			<clipPath id="SVGID_2_">
				<use xlink:href="#SVGID_1_"  style="overflow:visible;"/>
			</clipPath>
			<path class="st3" d="M114.39,46.27c4.51-7.42,12.37-14.55,12.37-14.55l-7.57-14.7h10.91l3.06,6.55c0,0,3.2-2.62,7.13-5.53
				c5.38-3.93,10.04-6.4,10.04-6.4s-0.58-1.31-2.18-2.76c-1.6-1.31-4.66-4.51-4.66-4.51s9.31,2.91,14.84,3.06
				c5.38,0.15,14.99-1.75,14.99-1.75s-2.91,2.91-8,8.15s-7.42,15.72-7.42,15.72s0-1.31-0.58-3.49s-1.6-4.22-1.6-4.22
				s-1.6,1.16-6.98,4.66c-5.38,3.49-10.33,7.71-10.33,7.71l6.55,13.39h-10.48l-4.07-7.71c0,0-1.89,1.02-6.55,5.09
				c-8.15,6.84-11.2,10.77-16.59,17.9c-2.91,3.93-3.49,5.38-1.16-0.73C106.38,62.43,107.84,57.33,114.39,46.27"/>
		</g>
		<g>
			<defs>
				<rect id="SVGID_3_" x="26.93" y="0" width="146.54" height="66.5"/>
			</defs>
			<clipPath id="SVGID_4_">
				<use xlink:href="#SVGID_3_"  style="overflow:visible;"/>
			</clipPath>
			<path class="st4" d="M106.09,6.4c0-3.49,2.91-6.4,6.4-6.4c3.49,0,6.4,2.91,6.4,6.4s-2.91,6.4-6.4,6.4
				C109,12.8,106.09,10.04,106.09,6.4"/>
		</g>
	</g>
</g>
</svg>
