<?xml version="1.0" encoding="utf-8"?>
<!-- Generator: Adobe Illustrator 24.1.2, SVG Export Plug-In . SVG Version: 6.00 Build 0)  -->
<svg version="1.1" id="图层_1" xmlns="http://www.w3.org/2000/svg" xmlns:xlink="http://www.w3.org/1999/xlink" x="0px" y="0px"
	 viewBox="0 0 904.8 787.6" style="enable-background:new 0 0 904.8 787.6;" xml:space="preserve">
<style type="text/css">
	.st0{fill:#3F3D56;}
	.st1{fill:#377DFF;}
	.st2{fill:#FFB8B8;}
	.st3{fill:#A0616A;}
	.st4{fill:#2F2E41;}
	.st5{opacity:0.1;enable-background:new    ;}
	.st6{fill:#B1060F;}
	.st7{fill:#E50914;}
	.st8{fill:none;stroke:#2F2E41;stroke-width:2;}
	.st9{opacity:0.4;fill:#FFFFFF;enable-background:new    ;}
	.st10{fill:#0EE694;}
	.st11{fill:#FFFFFF;}
	.st12{fill:#FFFFFF;stroke:#FFFFFF;stroke-width:4;}
	.st13{fill:#ED1E79;}
</style>
<rect x="643" y="581.8" class="st0" width="240.7" height="1.7"/>
<rect x="707.2" y="614.7" class="st0" width="197.6" height="1.7"/>
<path class="st0" d="M681.4,559.9h-22v-22h22V559.9z M661.2,558.3h18.6v-18.6h-18.6V558.3z"/>
<path class="st1" d="M154,517.7c0,56.8-33.7,76.6-75.4,76.7c-1,0-1.9,0-2.9,0c-1.9,0-3.8-0.1-5.7-0.3c-37.6-2.6-66.8-23.5-66.8-76.3
	c0-54.7,69.8-123.7,75-128.8c0,0,0,0,0,0c0.2-0.2,0.3-0.3,0.3-0.3S153.9,460.9,154,517.7z"/>
<path class="st0" d="M75.9,585.7l27.6-38.5l-27.6,42.8l-0.1,4.4c-1.9,0-3.8-0.1-5.7-0.3l2.9-56.8l0-0.4l0.1-0.1l0.3-5.4l-27.7-42.9
	l27.8,38.8l0.1,1.1l2.2-42.9l-23.7-44.3l24,36.7l2.3-89l0-0.3l0,0.3l-0.4,70.2l23.6-27.8l-23.7,33.9l-0.6,38.4l22-36.9l-22.1,42.5
	l-0.3,21.4l32-51.4l-32.1,58.8L75.9,585.7z"/>
<rect x="3.2" y="593.5" class="st0" width="142.7" height="1.7"/>
<rect x="174.4" y="87.4" class="st0" width="388.5" height="1.7"/>
<circle class="st1" cx="290.5" cy="89.1" r="16"/>
<path class="st0" d="M12.9,400.3c-5.6,0-10.1-4.5-10.1-10.1c0-5.6,4.5-10.1,10.1-10.1c5.6,0,10.1,4.5,10.1,10.1
	C23.1,395.8,18.5,400.3,12.9,400.3z M12.9,381.8c-4.7,0-8.4,3.8-8.4,8.4s3.8,8.4,8.4,8.4s8.4-3.8,8.4-8.4
	C21.4,385.5,17.6,381.8,12.9,381.8z"/>
<path class="st0" d="M156.9,362.3h-22v-22h22V362.3z M136.6,360.6h18.6V342h-18.6L136.6,360.6z"/>
<ellipse class="st0" cx="376.2" cy="654.5" rx="376.2" ry="8.7"/>
<ellipse class="st0" cx="376.2" cy="683.4" rx="260.4" ry="6"/>
<ellipse class="st0" cx="376.3" cy="709.6" rx="212.4" ry="4.9"/>
<path class="st2" d="M561.3,495.1l-1.2,26l59.4,19.8c0,0-3.1-32.8-1.2-35.9L561.3,495.1z"/>
<polygon class="st2" points="464.9,610.7 459.3,632.3 485.3,632.3 485.3,610.7 "/>
<polygon class="st3" points="599.6,616.5 611.4,620.6 617.6,605.1 607.1,596.8 "/>
<path class="st4" d="M620.5,589.5c0,0,17.5-2.3,17.5,12.5s2.5,51.3-22.3,47c0,0-11.1,1.2-6.8-11.7c0,0,4.4-5.3,2.8-8.5
	c-1.6-3.2-10.9-5.7-9.6-7.6s14.8-16.7,14.8-16.7L620.5,589.5z"/>
<path class="st4" d="M620.7,537.8l-60.6-21l-3.7,14.8c0,0-90.9-52.6-96.5-16.7c0,0-4.9,29.1,2.5,67.4l0.6,30.9
	c0,0,15.5,3.7,22.9,0.6l0.6-33.4c0,0,6.2-21.6,3.1-38.3c0,0,46.4,36.5,67.4,40.8c0,0-73.6,56.9-64.9,74.8s19.2,21,32.8,17.9
	c9.4-2.1,51.3-36,76.5-56.8c17.5-14.3,27.2-36.1,26.1-58.7C627,551.9,625.1,543.9,620.7,537.8z"/>
<path class="st4" d="M463.6,624.3c0,0-0.6-7.4-4.3-4.3c-3.7,3.1-16.7,14.8-16.7,14.8s-47,5.2-18.5,16.9c13,2,26.3,0.2,38.3-4.9
	c0,0,31.6,8.1,30.9,0.2c-0.7-7.9-8.1-21-8.1-21s-8.7,6.3-18.5-2.3L463.6,624.3z"/>
<circle class="st2" cx="586" cy="401.1" r="22.9"/>
<path class="st2" d="M604.6,402.3c0,0,3.7,18.5,10.5,22.9l-37.7,44.5l-14.2-13.6l10.5-18.5c0,0,11.7-6.8,8-16.1L604.6,402.3z"/>
<path class="st2" d="M618.2,427.1c0,0,27.2,5.6,30.3,23.5c3.1,17.9-3.1,50.7-3.1,50.7l-13,96.5c0,0-0.6,40.8-16.7,34
	s4.3-37.7,4.3-37.7l5.6-60.6c0,0,2.5-51.3-2.5-57.5l-19.8-6.2C603.4,469.7,607.7,428.9,618.2,427.1z"/>
<path class="st2" d="M573.7,437.6c0,0-18.5-0.6-30.3,14.2c-11.7,14.8-40.2,26-40.2,26l-71.1,27.8c0,0-13-22.9-21-14.8
	c-8,8,14.8,28.4,25.3,26s74.2-21.6,74.2-21.6l50.7-22.9L573.7,437.6z"/>
<path class="st0" d="M614.1,423.8c0,0-23.8,31.8-34.3,31.2c-10.5-0.6-3.4-19.4-3.4-19.4l-7.4,1.9c0,0-10.2,19.4-11.4,20.6
	c0,0-14.8,24.1,1.9,29.7l0.6,13c0,0,41.4-1.9,59.4,7.4l3.7-32.2c0,0-23.5-11.7-10.5-34.6c0,0,4.6-12,9.6-13.2L614.1,423.8z"/>
<path class="st5" d="M620.4,593.7L525.8,663C525.8,663,621,606.7,620.4,593.7z"/>
<ellipse class="st2" cx="609.9" cy="399.3" rx="1.8" ry="4"/>
<path class="st4" d="M560.8,389c0,0-6.4-43.3,39.4-29.9c0,0,32.4-6.6,43.8,33.9l11.6,42.4l-5.3-2.8l-2.3,5.4l-8.5,2.3l-3.8-7.2
	l-1.6,8.8l-69.7,8.3c0,0,30.9-19.1,30.8-52.2l-5.8,6.4L560.8,389z"/>
<path id="bf2f48d4-d76c-43f7-acff-29e29e6968d0" class="st6" d="M403.9,211.1l-0.2,98.7l-0.2,98.7l-8.1-22.9v-0.1L385,605.3
	c10.3,29.1,15.9,44.7,15.9,44.8c0.1,0.1,5.9,0.4,13,0.8c21.5,1.1,48.2,3.3,68.4,5.9c4.7,0.6,8.7,0.9,9,0.6s0.4-100.7,0.3-223.3
	l-0.2-222.9L403.9,211.1L403.9,211.1z"/>
<path id="bfab83f1-a1e5-4c79-84d8-61287c2d74b0" class="st6" d="M245.6,210.8v223.1c0,122.7,0.1,223.3,0.3,223.4
	c0.2,0.2,7.8-0.6,16.9-1.6s21.8-2.3,28.1-2.8c9.6-0.8,38.5-2.6,41.8-2.7c1,0,1.1-5,1.2-94.5l0.2-94.5l7,19.7c1.1,3.1,1.4,4,2.5,7
	l10.5-219.7c-2.2-6.3-1.1-3-3.6-10.2c-8.6-24.3-15.9-44.8-16.2-45.7l-0.6-1.6L245.6,210.8L245.6,210.8z"/>
<path id="ed196cf9-a066-4498-9a77-a0c0f8894188" class="st7" d="M245.6,210.8L334,461.4v-0.1l7,19.7c38.8,109.9,59.7,168.9,59.8,169
	c0.1,0.1,5.9,0.4,13,0.8c21.5,1.1,48.2,3.3,68.4,5.9c4.6,0.6,8.7,0.9,8.9,0.6l-87.7-248.9v0.1l-8.1-22.9
	c-7.9-22.4-13.2-37.4-45.1-127.5c-8.6-24.3-15.9-44.8-16.2-45.7l-0.6-1.6h-44L245.6,210.8L245.6,210.8z"/>
<g>
	<path class="st8" d="M796.3,243.8c-6.1,2.1-7.6,10.5-5.5,16.6c2.1,6.1,6.6,11.2,8.8,17.3c1,3.1,1.8,6.2,2.2,9.4
		c1.3,7.6,2.6,15.4,1.6,23.1c-0.9,7.3-3.9,14.1-7.2,20.7c-6.4,12.7-14.1,24.7-23.1,35.7"/>
	<path class="st1" d="M843.3,172.8c0,27.3-21.9,71-48.8,71c-27,0-48.8-43.6-48.8-71s21.9-49.5,48.8-49.5S843.3,145.4,843.3,172.8
		L843.3,172.8z"/>
	<path class="st1" d="M799.2,246.8c-3.1-2-6.3-2-9.4,0v-9.4h9.4V246.8z"/>
	<path class="st8" d="M789.8,241.9c3,1.5,6.5,1.5,9.4,0"/>
	<ellipse class="st9" cx="814.7" cy="151.5" rx="10.3" ry="12.3"/>
	<rect x="801.1" y="175.4" class="st10" width="4.7" height="19.4"/>
	<path class="st10" d="M792.8,189.3c0,0.7-0.6,1.3-1.3,1.3h-2.7c-0.7,0-1.3-0.6-1.3-1.3c0-0.3,0-7.8,0-7.8h-4.7v8.2
		c0,3.4,2.2,5.1,5.3,5.1h4.6v0c2.9,0,4.7-2.1,4.7-5.1v-8.2h-4.7C792.8,181.5,792.8,189,792.8,189.3z"/>
	<path class="st10" d="M819.2,181.5c0,0,0,7.6,0,7.8c0,0.7-0.6,1.3-1.3,1.3h-2.7c-0.7,0-1.3-0.6-1.3-1.3c0-0.3,0-7.8,0-7.8h-4.7v8.2
		c0,3.4,2.2,5.1,5.3,5.1h4.6v0c2.9,0,4.7-2.1,4.7-5.1v-8.2H819.2z"/>
	<path class="st10" d="M774.3,181.5c0,0-2.4,0-3,0c-1.1,0-1.6,0.3-1.6,0.3v-6.3H765v19.4h4.7V187c0-0.7,0.6-1.3,1.3-1.3h2.7
		c0.7,0,1.3,0.6,1.3,1.3v7.8h4.7v-8.4C779.6,182.8,777.2,181.5,774.3,181.5z"/>
</g>
<g>
	<path id="path3" class="st11" d="M552.1,602.5c0.9-0.8,4-2.5,6.2,0.1c1.8,2.1,1.3,3.5,0.6,4.3c-0.5,0.6,1.6-1.4,3.8,1.2
		c3.1,3.7-0.2,6.3-0.2,6.3l-5.3,4.5L547,606.8L552.1,602.5z M552.5,607.2l1.5,1.8l1.8-1.5c0,0,0.6-0.7-0.1-1.6
		c-0.7-0.9-1.4-0.3-1.4-0.3L552.5,607.2z M556.2,611.7l1.6,1.9l1.8-1.5c0,0,0.7-0.7-0.1-1.6c-0.7-0.9-1.4-0.3-1.4-0.3L556.2,611.7z
		 M537.5,614.8l10.2,12.1l3.3-2.8l-3.8-4.5l2.1-1.8l3.8,4.5l3.3-2.8l-10.2-12.1l-3.3,2.8l3.8,4.6l-2.1,1.8l-3.8-4.6L537.5,614.8z"/>
	<circle class="st12" cx="566.4" cy="600.8" r="6"/>
	<circle class="st13" cx="566.4" cy="600.8" r="3.3"/>
</g>
</svg>
