<?xml version="1.0" encoding="utf-8"?>
<!-- Generator: Adobe Illustrator 26.2.1, SVG Export Plug-In . SVG Version: 6.00 Build 0)  -->
<svg version="1.1" id="图层_1" xmlns="http://www.w3.org/2000/svg" xmlns:xlink="http://www.w3.org/1999/xlink" x="0px" y="0px"
	 viewBox="0 0 613 770" style="enable-background:new 0 0 613 770;" xml:space="preserve">
<style type="text/css">
	.st0{fill:#377DFF;}
	.st1{fill:#00DFFC;}
	.st2{fill:none;stroke:#FFC107;stroke-width:4;stroke-linecap:round;stroke-miterlimit:10;}
</style>
<path class="st0" d="M134.2,630.4L134.2,630.4c38.5,0,69.8,31.3,69.8,69.8l0,0c0,38.5-31.3,69.8-69.8,69.8l0,0
	c-38.5,0-69.8-31.3-69.8-69.8l0,0C64.4,661.7,95.7,630.4,134.2,630.4z"/>
<path class="st1" d="M430.1,462.8L430.1,462.8c77,0,139.6,62.5,139.6,139.6l0,0H430.1V462.8z"/>
<line class="st2" x1="69.8" y1="123.6" x2="189.1" y2="4.4"/>
<line class="st2" x1="146.4" y1="2.8" x2="66.9" y2="82.3"/>
<line class="st2" x1="67.7" y1="37.2" x2="102.7" y2="2.3"/>
<line class="st2" x1="68.3" y1="57.2" x2="122.7" y2="2.9"/>
<line class="st2" x1="113.3" y1="124.4" x2="190.1" y2="47.5"/>
<line class="st2" x1="87.3" y1="127.6" x2="191.2" y2="23.7"/>
<line class="st2" x1="66.8" y1="103.8" x2="168.5" y2="2.1"/>
<line class="st2" x1="155.7" y1="126.2" x2="191.6" y2="90.2"/>
<line class="st2" x1="136.8" y1="125.7" x2="191.1" y2="71.2"/>
</svg>
