<?xml version="1.0" encoding="utf-8"?>
<!-- Generator: Adobe Illustrator 26.2.1, SVG Export Plug-In . SVG Version: 6.00 Build 0)  -->
<svg version="1.1" id="layer1" xmlns="http://www.w3.org/2000/svg" xmlns:xlink="http://www.w3.org/1999/xlink" x="0px" y="0px"
	 viewBox="0 0 900 900" style="enable-background:new 0 0 900 900;" xml:space="preserve">
<style type="text/css">
	.st0{fill:#DB0D82;}
</style>
<g>
	<path class="st0" d="M4.4,450.5c295.9,0,591.1,0,885.4,0c-56.8,8.1-114.6,16.3-172.3,24.5c-61.8,8.8-123.6,17.8-185.4,26.6
		c-54.7,7.8-109.4,15.5-164.1,23.4c-47.8,6.8-95.6,13.7-143.3,20.5c-35.4,5.1-70.8,10.2-106.3,15.1c-2,0.3-4.8-0.5-6.2-1.9
		c-35.6-35.4-71-70.8-106.5-106.3C5.3,452.1,5.1,451.6,4.4,450.5z"/>
	<path class="st0" d="M214.5,660.1C437.1,592,659.3,523.9,881.6,455.9c0.2,0.3,0.4,0.6,0.6,1c-1.3,0.9-2.6,1.9-4,2.7
		c-32.6,17-65.2,34-97.8,51.1c-49.8,26.1-99.6,52.2-149.5,78.3c-34.8,18.2-69.6,36.4-104.4,54.6c-42.2,22.1-84.3,44.1-126.5,66.3
		c-29,15.2-58,30.6-87,45.7c-1.2,0.6-3.7,0.4-4.6-0.5c-31.2-31-62.3-62.2-93.4-93.3C214.8,661.4,214.8,661.1,214.5,660.1z"/>
	<path class="st0" d="M382.6,827.2c165.9-121,332.5-242.6,495.9-361.9c-141.4,141.4-285.4,285.4-429,429
		C428.1,872.9,405.6,850.3,382.6,827.2z"/>
</g>
<polygon class="st0" points="889.9,449.2 117,339.1 214.2,240 "/>
<polygon class="st0" points="889.9,445.6 313,141 382.3,72.4 "/>
</svg>
