<?xml version="1.0" encoding="utf-8"?>
<!-- Generator: Adobe Illustrator 26.2.1, SVG Export Plug-In . SVG Version: 6.00 Build 0)  -->
<svg version="1.1" id="图层_1" xmlns="http://www.w3.org/2000/svg" xmlns:xlink="http://www.w3.org/1999/xlink" x="0px" y="0px"
	 viewBox="0 0 900 900" style="enable-background:new 0 0 900 900;" xml:space="preserve">
<style type="text/css">
	.st0{fill:#FABC3D;}
	.st1{fill:#FFFFFF;}
	.st2{fill:#84462D;}
	.st3{fill:#DF2C2C;}
	.st4{fill:#9C6144;}
	.st5{fill:#FA5655;}
</style>
<g id="R-Multicolor">
	<circle class="st0" cx="450" cy="450" r="450"/>
	<g>
		<g>
			<path class="st1" d="M208.1,406c13.5,11.7,33.9,10.3,45.7-3c34.7-38.8,65.2-26.6,65.2-26.6s-16.4,32.7-8.2,98.2
				c-54.6,27.3-69.3,105.8-72.7,131.1c11.1,11.5,27.7,21.6,48.5,30.1c5.4-104.9,89.7-120.2,89.7-120.2c24.5,16.4,106.4,16.4,139.1,0
				c24.5,57.3,68,42.2,98.2,57.3c24.4,12.2,26.1,38,25.3,50.3c12.3-7.3,22.1-15.4,28.7-24.2c2.9-3.9,6.8-6.6,11.1-8.2
				c-2.5-24.7-18-60.3-40.5-75.2c38-88.6-0.2-124.9-57.3-137.2c-41-8.8-91.6-5.1-131,0.7c-12.2,1.8-23.3,3.8-32.6,5.6
				c0-88-46.9-130.8-110.4-130.8c-28.7,0-52.5,18-70.5,38.8c-20.5,23.6-35.7,52.8-39.8,72.2c-2.9,13.8-2.8,28,7.5,37.6
				C205.3,403.5,206.7,404.8,208.1,406z"/>
		</g>
		<g>
			<path class="st2" d="M449.9,378.9c-12.2,1.8-23.3,3.8-32.6,5.6c0-88-46.9-130.8-110.4-130.8c-28.7,0-52.5,18-70.5,38.8
				c-0.7-22,6.3-71.6,82.7-71.6C414.1,220.9,447.8,320.6,449.9,378.9z"/>
		</g>
		<g>
			<path class="st2" d="M600.7,383.8c39.5,14.1,63.7,44.4,47.6,103.1c21.5,33.1,45.7,61.2,63.6,61.2
				C711.8,387.1,672.2,368.8,600.7,383.8z"/>
		</g>
		<g>
			<path class="st3" d="M580.9,378.2V450c0,18.1-14.7,32.7-32.7,32.7H450c-18.1,0-32.7-14.7-32.7-32.7v-65.5
				C456.9,376.6,527.2,366.8,580.9,378.2z"/>
		</g>
		<g>
			<circle class="st4" cx="270" cy="310.9" r="16.4"/>
		</g>
		<g>
			<g>
				<path class="st4" d="M450,711.8c-93.9,0-210.8-21.9-256.9-83.5c-8.1-10.8-5.9-26.2,4.9-34.4c10.8-8.1,26.2-5.9,34.4,4.9
					c28.6,38.2,116.1,63.8,217.6,63.8s189-25.7,217.6-63.8c8.1-10.8,23.5-13,34.4-4.9c10.8,8.1,13.1,23.5,4.9,34.4
					C660.8,689.9,543.9,711.8,450,711.8z"/>
			</g>
		</g>
		<g>
			<path class="st4" d="M319.1,220.9c-76.4,0-83.5,49.6-82.7,71.6c18.1-20.8,41.8-38.8,70.5-38.8c55.6,0,98.5,32.9,108.3,100.3
				l26.2-26.2C426.2,275.7,389.5,220.9,319.1,220.9z"/>
		</g>
		<g>
			<path class="st5" d="M417.3,384.5V450c0,9.1,3.7,17.3,9.6,23.2L527.1,373C486.2,372.8,444.5,379.1,417.3,384.5z"/>
		</g>
	</g>
</g>
</svg>
