<?xml version="1.0" encoding="utf-8"?>
<!-- Generator: Adobe Illustrator 24.1.2, SVG Export Plug-In . SVG Version: 6.00 Build 0)  -->
<svg version="1.1" id="layer_x5F_1" xmlns="http://www.w3.org/2000/svg" xmlns:xlink="http://www.w3.org/1999/xlink" x="0px"
	 y="0px" viewBox="0 0 500 500" style="enable-background:new 0 0 500 500;" xml:space="preserve">
<style type="text/css">
	.st0{fill:#377DFF;}
</style>
<g>
	<path class="st0" d="M305.51,332.12c-11.8,28.87-45.62,39.23-74.44,31.68c-16.22-4.25-29.12-13.09-36.3-28.75
		c-1.81-3.94-4.31-3.22-7.3-2.63c-26.6,5.26-53.21,10.5-79.82,15.72c-0.86,0.17-1.77,0.12-3.15,0.2
		c-1.58-38.85,6.86-74.07,33.89-103.12c3.91-4.2,5.63-8.14,5.36-14.1c-1.79-40.16,1.2-79.78,15.06-117.99
		c16.76-46.23,43.21-84.82,86.06-110.87c4.35-2.65,7.27-1.95,10.7,0.32c34.39,22.74,59.39,53.15,76.26,90.83
		c19.64,43.88,25.98,89.73,23.11,137.24c-0.33,5.45,1.05,9.37,5.01,13.51c18.67,19.55,29.85,42.87,32.76,69.88
		c1.21,11.24,1.92,22.54,2.99,35.45C364.69,343.52,335.27,337.85,305.51,332.12z M129.35,321.5c24.03-4.78,47.24-9.2,70.32-14.18
		c4.7-1.01,6.51-0.04,8.22,4.17c4.83,11.92,12.9,21.18,25.16,25.6c24.52,8.83,47.14-0.66,58.66-24.32c1.77-3.63,3.44-5.52,7.79-4.55
		c12.23,2.74,24.51,5.24,36.79,7.72c11.04,2.23,22.11,4.3,32.97,6.41c0.54-1.2,0.84-1.6,0.88-2.03c0.09-0.92,0.09-1.86,0.05-2.79
		c-1.22-28.35-11.35-52.81-32.06-72.5c-2.96-2.82-4.01-5.42-3.55-9.68c0.97-9.01,1.37-18.13,1.26-27.2
		c-0.42-35.93-7.45-70.44-23.05-102.98c-13.51-28.18-31.3-52.78-57.9-70.26c-3.98-2.62-6.4-2.17-9.78,0.21
		c-30.01,21.07-50.44,49.54-63.65,83.31c-14.01,35.84-18.57,73.17-15.52,111.45c0.54,6.83-0.39,12.53-6.34,17.11
		c-3.61,2.78-6.4,6.73-9.22,10.42C136.08,276.16,130.2,297.66,129.35,321.5z"/>
	<path class="st0" d="M248.75,499.55c-14.62-22.03-28.19-43.13-33.35-68.03c-3.86-18.6,6.15-42.52,27.74-48.5
		c10.93-3.03,26.78,3.86,33.72,15.39c7.33,12.16,9.21,25.02,5.43,38.69C275.95,460.04,263.75,479.81,248.75,499.55z M250.25,467.51
		c4.83-9.91,9.56-18.18,12.96-26.97c3.07-7.94,4.7-16.34,0.67-24.82c-5.41-11.38-14.61-16.31-23.61-7.56
		c-5.65,5.49-8.56,12.97-6.92,20.96C236.11,442.5,241.89,454.72,250.25,467.51z"/>
	<path class="st0" d="M248.99,203.13c-24.49,0.03-43.97-19.92-44.01-45.09c-0.04-24.29,19.83-44.5,43.73-44.48
		c25.56,0.02,45.88,19.62,45.81,44.19C294.46,183.3,274.61,203.09,248.99,203.13z M248.42,183.52
		c14.68,0.05,25.62-10.77,25.66-25.38c0.04-13.59-11-24.77-24.43-25.02c-14.96-0.28-25.82,11.28-26.11,24.93
		C223.24,171.96,234.66,183.48,248.42,183.52z"/>
</g>
</svg>
