<?xml version="1.0" standalone="no"?>
<!DOCTYPE svg PUBLIC "-//W3C//DTD SVG 20010904//EN"
 "http://www.w3.org/TR/2001/REC-SVG-20010904/DTD/svg10.dtd">
<svg version="1.0" xmlns="http://www.w3.org/2000/svg"
 width="1390.000000pt" height="383.000000pt" viewBox="0 0 1390.000000 383.000000"
 preserveAspectRatio="xMidYMid meet">

<g transform="translate(0.000000,383.000000) scale(0.100000,-0.100000)"
fill="#0059ff" stroke="none">
<path d="M1695 3760 c-33 -5 -80 -13 -105 -19 -25 -5 -81 -17 -125 -26 -43 -9
-97 -25 -119 -36 -22 -10 -47 -19 -56 -19 -9 0 -20 -4 -26 -8 -5 -5 -38 -20
-74 -33 -36 -12 -91 -38 -123 -56 -33 -18 -60 -33 -62 -33 -6 0 -113 -67 -139
-87 -16 -13 -33 -23 -38 -23 -34 0 -400 -368 -421 -424 -5 -11 -16 -30 -26
-41 -43 -50 -137 -223 -171 -317 -13 -35 -27 -67 -32 -72 -4 -6 -8 -17 -8 -25
0 -8 -11 -42 -25 -76 -13 -34 -29 -86 -34 -116 -6 -30 -17 -88 -26 -129 -25
-120 -31 -402 -11 -540 9 -63 21 -128 26 -145 4 -16 15 -57 23 -90 14 -58 37
-127 63 -190 6 -16 19 -50 27 -75 25 -72 128 -258 168 -305 10 -11 21 -30 26
-41 22 -60 367 -404 427 -427 11 -4 28 -15 37 -23 15 -13 128 -84 134 -84 2 0
32 -16 67 -36 34 -20 83 -43 108 -51 25 -8 59 -21 75 -28 99 -42 148 -58 210
-70 39 -8 104 -22 145 -31 108 -25 502 -25 610 0 41 9 107 23 146 30 38 8 90
23 114 35 24 11 51 21 60 21 9 0 20 4 26 9 5 5 36 18 69 29 33 11 89 36 123
56 35 20 65 36 67 36 6 0 119 71 134 84 9 8 26 19 37 23 60 23 405 367 427
427 5 11 16 30 26 41 43 50 137 223 171 317 13 35 27 67 32 72 4 6 8 17 8 26
0 9 11 44 25 77 25 62 28 76 64 278 28 152 28 388 0 540 -36 202 -39 216 -64
278 -14 33 -25 68 -25 77 0 9 -4 20 -8 25 -5 6 -19 38 -32 73 -34 94 -128 267
-171 317 -10 11 -21 30 -26 41 -22 60 -367 404 -427 427 -11 4 -28 15 -37 23
-15 13 -128 84 -134 84 -2 0 -29 15 -62 33 -32 18 -87 44 -123 56 -36 13 -69
28 -75 33 -5 4 -16 8 -25 8 -9 0 -35 9 -59 21 -24 11 -75 27 -114 34 -40 8
-103 21 -142 30 -83 18 -437 29 -530 15z m446 -569 c60 -25 295 -192 344 -244
12 -12 47 -44 80 -72 62 -52 160 -152 205 -210 14 -18 59 -74 101 -126 186
-229 330 -488 413 -744 111 -342 97 -632 -42 -855 -97 -156 -233 -254 -417
-300 -80 -20 -106 -22 -255 -17 -250 8 -435 59 -702 192 -91 46 -281 164 -359
224 -26 20 -60 45 -75 56 -54 38 -211 184 -309 287 -147 154 -256 297 -349
454 -26 43 -59 99 -74 124 -60 99 -155 343 -198 510 -46 178 -44 405 5 515 38
84 144 158 248 171 62 8 152 -18 241 -71 138 -80 360 -125 479 -96 89 22 207
74 278 123 169 116 257 135 386 79z"/>
<path d="M1952 3060 c-13 -6 -37 -21 -55 -34 -62 -47 -204 -123 -282 -151 -70
-25 -98 -29 -215 -33 -94 -2 -155 1 -200 11 -81 18 -190 59 -227 84 -55 38
-141 73 -178 73 -60 0 -122 -35 -147 -84 -36 -68 -37 -236 -3 -406 15 -73 31
-143 35 -154 5 -12 18 -48 30 -81 29 -79 156 -337 178 -361 9 -11 39 -52 66
-93 126 -187 384 -463 589 -629 254 -206 545 -354 802 -410 238 -51 468 -31
607 55 64 39 144 122 183 188 97 165 93 488 -11 775 -103 286 -320 618 -558
855 -159 157 -408 360 -480 390 -39 17 -99 19 -134 5z m16 -208 c4 -29 -44
-75 -143 -135 -173 -104 -332 -144 -535 -134 -174 9 -296 46 -427 129 -28 18
-59 38 -68 43 -14 8 -16 18 -10 43 8 40 24 40 81 1 61 -42 175 -92 270 -120
65 -19 103 -23 214 -24 121 0 144 3 220 28 110 36 252 106 315 156 55 44 78
47 83 13z"/>
<path d="M8660 1920 l0 -1290 2355 0 2355 0 0 1290 0 1290 -2355 0 -2355 0 0
-1290z m910 423 c173 -329 350 -664 393 -745 l78 -148 -53 0 -53 1 -345 656
-345 657 -3 -922 -2 -922 -45 0 -45 0 0 1010 0 1010 53 0 53 0 314 -597z m211
-20 c178 -339 354 -675 391 -745 l68 -128 -53 0 -52 0 -330 627 c-182 345
-358 680 -391 745 l-62 118 52 0 52 0 325 -617z m239 -78 c200 -382 367 -692
371 -687 4 4 169 315 367 692 l359 685 57 3 56 3 0 -1011 0 -1010 -50 0 -50 0
-2 915 -3 915 -341 -647 -342 -648 -54 -3 -55 -3 -353 673 c-194 370 -371 706
-392 746 l-40 72 54 0 53 0 365 -695z m796 678 c-7 -17 -454 -864 -514 -972
l-35 -65 -25 50 -24 50 252 477 252 477 50 0 c43 0 49 -3 44 -17z m201 5 c-2
-7 -149 -286 -324 -621 -233 -441 -323 -604 -330 -595 -6 7 -18 28 -27 46
l-17 33 301 575 302 574 50 0 c36 0 49 -4 45 -12z m533 -998 l0 -1010 -50 0
-50 0 0 1010 0 1010 50 0 50 0 0 -1010z m170 0 l0 -1010 -45 0 -45 0 0 1010 0
1010 45 0 45 0 0 -1010z m180 0 l0 -1010 -50 0 -50 0 0 1010 0 1010 50 0 50 0
0 -1010z m1110 965 l0 -45 -470 0 -470 0 0 -40 0 -40 470 0 470 0 0 -45 0 -45
-467 -2 -468 -3 -3 -42 -3 -43 470 0 471 0 0 -45 0 -45 -470 0 -470 0 0 -175
0 -175 240 0 240 0 0 -45 0 -45 -240 0 -240 0 0 -40 0 -40 240 0 240 0 0 -45
0 -45 -237 -2 -238 -3 -3 -42 -3 -43 240 0 241 0 0 -45 0 -45 -240 0 -240 0 0
-175 0 -175 470 0 470 0 0 -45 0 -45 -471 0 -470 0 3 -42 3 -43 468 -3 467 -2
0 -45 0 -45 -470 0 -470 0 0 -40 0 -40 470 0 470 0 0 -45 0 -45 -515 0 -515 0
0 1010 0 1010 515 0 515 0 0 -45z m-1960 -1190 l0 -785 -45 0 -45 0 0 706 0
707 43 78 c23 44 43 79 45 79 1 0 2 -353 2 -785z m-1631 -87 l1 -698 -45 0
-45 0 1 783 0 782 44 -85 44 -85 0 -697z m1451 -83 l0 -615 -45 0 -45 0 0 536
0 537 43 78 c23 44 43 79 45 79 1 0 2 -277 2 -615z m-1309 513 l29 -57 0 -536
0 -535 -45 0 -45 0 0 613 c1 677 -4 641 61 515z m1139 -678 l0 -450 -45 0 -45
0 0 370 0 370 40 80 c22 44 42 80 45 80 3 0 5 -202 5 -450z m-930 -85 l0 -365
-45 0 -45 0 0 448 0 447 45 -82 45 -83 0 -365z"/>
<path d="M7310 2928 c-153 -12 -249 -43 -362 -117 -159 -104 -268 -268 -323
-485 -31 -124 -49 -350 -41 -511 18 -330 93 -526 265 -695 174 -170 388 -239
688 -218 252 17 455 96 578 225 l45 47 0 383 0 383 -375 0 -375 0 0 -130 0
-130 205 0 205 0 -2 -202 -3 -203 -55 -33 c-80 -48 -141 -63 -270 -69 -88 -4
-130 -2 -180 11 -176 45 -303 189 -356 406 -16 64 -19 115 -19 340 0 245 2
271 23 349 57 207 162 326 324 367 80 21 231 14 301 -12 108 -42 190 -135 223
-254 8 -30 17 -61 19 -67 3 -10 46 -13 170 -13 125 0 165 3 165 13 0 6 -9 50
-20 97 -89 368 -386 553 -830 518z"/>
<path d="M4080 1915 l0 -995 388 0 c410 0 524 7 637 41 254 75 395 267 395
534 -1 112 -25 197 -81 280 -53 80 -117 128 -228 172 -23 9 -22 11 32 41 74
42 119 82 157 142 113 175 88 447 -55 599 -83 89 -232 149 -420 171 -49 5
-255 10 -457 10 l-368 0 0 -995z m894 680 c93 -47 136 -122 136 -238 0 -77
-15 -127 -53 -172 -76 -93 -157 -115 -429 -115 l-198 0 0 281 0 281 243 -4
242 -3 59 -30z m7 -799 c105 -39 167 -130 177 -257 12 -164 -61 -278 -209
-324 -42 -14 -105 -19 -286 -22 l-233 -5 0 317 0 317 253 -4 c207 -4 260 -8
298 -22z"/>
<path d="M5870 1915 l0 -995 170 0 170 0 0 995 0 995 -170 0 -170 0 0 -995z"/>
</g>
</svg>
