<?xml version="1.0" encoding="utf-8"?>
<!-- Generator: Adobe Illustrator 24.1.2, SVG Export Plug-In . SVG Version: 6.00 Build 0)  -->
<svg version="1.1" id="图层_1" xmlns="http://www.w3.org/2000/svg" xmlns:xlink="http://www.w3.org/1999/xlink" x="0px" y="0px"
	 viewBox="0 0 200.4 66.5" style="enable-background:new 0 0 200.4 66.5;" xml:space="preserve">
<style type="text/css">
	.st0{fill:#0089D6;}
</style>
<g id="layer1" transform="translate(677.9313,-313.85407)">
	<g id="layer1-1" transform="matrix(0.03978217,0,0,0.03978217,-658.51488,317.36166)">
		<path id="path21" class="st0" d="M378.73,1395.76c240.72-42.52,439.54-77.71,441.83-78.2l4.15-0.88l-227.26-270.32
			c-125-148.68-227.26-270.9-227.26-271.61c0-1.33,234.67-647.56,235.99-649.86c0.44-0.77,160.14,274.95,387.12,668.36
			c212.51,368.32,387.71,672,389.33,674.84l2.96,5.17l-722.27-0.09l-722.27-0.09C-58.94,1473.08,378.73,1395.76,378.73,1395.76z
			 M3148.54,1330.38c-109.94-7.05-173.89-69.65-190.83-186.83c-4.51-31.17-4.52-31.98-4.99-234.35l-0.45-195.86h48.66h48.66
			l0.38,189.45c0.35,170.74,0.56,190.76,2.19,202.77c6.63,48.75,19.81,81.53,42.27,105.06c17.97,18.83,39.01,29.86,68.13,35.71
			c13.74,2.76,52.82,2.77,65.35,0.01c29.52-6.5,53.19-19.34,74.06-40.21c23.79-23.78,41.39-57.53,49.91-95.68l2.87-12.86
			l0.32-191.05l0.32-191.05h49.68h49.68v300.33v300.33h-49.17h-49.17v-47.65c0-32.38-0.35-47.53-1.11-47.28
			c-0.61,0.2-3.13,4.07-5.61,8.58c-16.94,30.9-45.17,59.16-76.1,76.18C3236.52,1326.39,3199.34,1333.64,3148.54,1330.38
			L3148.54,1330.38z M4264.47,1329.9c-38.81-2.92-79.67-16.26-113.08-36.92c-70.4-43.55-112.05-115.32-124.25-214.1
			c-4.22-34.18-4.73-80.1-1.21-109.14c7.87-64.9,33.37-128.61,69.69-174.09c9.31-11.66,30.43-32.78,42.09-42.09
			c31.48-25.14,68.31-42.72,107.42-51.27c22.78-4.98,62.9-7.32,87.11-5.08c60.8,5.64,116.53,34.26,154.41,79.32
			c38.48,45.78,59.63,109.75,62.34,188.52c0.42,12.34,0.53,33.99,0.23,48.1l-0.54,25.65l-212.96,0.27l-212.96,0.27v9.5
			c0,28.93,7.03,61.88,19.19,89.92c10.49,24.18,28.54,50.58,43.31,63.35c30.3,26.19,67.39,41.87,107.97,45.65
			c15.05,1.4,53.39-0.07,70.54-2.71c48.92-7.52,95.43-26.71,132.99-54.87c4.42-3.31,8.65-6.41,9.4-6.88
			c1.1-0.69,1.36,7.97,1.33,44.36l-0.03,45.21l-10.06,6.22c-42.49,26.28-91.17,43.15-142.71,49.47
			C4339.3,1330.44,4282.86,1331.28,4264.47,1329.9L4264.47,1329.9z M4449.81,948.59c0-48.46-20.42-102.29-49.32-130.01
			c-20.62-19.78-45.56-31.87-75.19-36.46c-14.02-2.17-43.58-1.34-58.36,1.65c-31.25,6.31-57.1,20.05-79.65,42.33
			c-23.73,23.45-41.52,51.93-52.71,84.37c-4.02,11.67-8.73,30.82-10.19,41.48l-0.7,5.08h163.06h163.06V948.59z M1561.05,1314.81
			c0.25-0.73,72.57-190.71,160.7-422.17L1882,471.8l51.49,0l51.49,0l4.27,10.96c13.05,33.48,320.81,832.49,320.81,832.9
			c0,0.27-24.65,0.49-54.78,0.49l-54.78-0.01l-44.36-118.09l-44.36-118.09l-178.6,0l-178.6,0l-1.55,4.01
			c-0.85,2.2-19.8,55.34-42.11,118.08l-40.56,114.08l-54.89,0.02C1572.04,1316.14,1560.69,1315.87,1561.05,1314.81L1561.05,1314.81z
			 M2079.2,989.82c0-0.19-29.85-81.11-66.33-179.83c-68.25-184.68-72.07-195.79-77.46-225.44c-2.53-13.9-3.81-14.29-5.31-1.6
			c-1.07,9.07-5.72,29.36-9.31,40.61c-1.78,5.58-32.52,89.94-68.3,187.46c-35.79,97.52-65.07,177.72-65.07,178.22
			s65.65,0.91,145.89,0.91S2079.2,990.01,2079.2,989.82z M2343.19,1300.77v-15.38l177.94-244.61l177.94-244.61l-161.1-0.53
			l-161.1-0.53l-0.28-40.88l-0.28-40.88h233.01h233.01v13.81v13.81L2664.37,986.9c-97.88,135.27-177.96,246.17-177.96,246.45
			c0,0.28,79.12,0.51,175.82,0.51h175.82V1275v41.15h-247.43h-247.43V1300.77z M3648.92,1315.44c-0.39-0.39-0.71-136.02-0.71-301.4
			V713.34h48.63h48.63v61.99c0,34.09,0.41,61.99,0.92,61.99c0.51,0,2.87-5.58,5.26-12.4c10.93-31.26,29.9-60.46,54.32-83.68
			c22.01-20.91,47.16-33.42,76.84-38.2c8.34-1.34,15.39-1.6,32.06-1.17c20.94,0.55,31.89,2.08,44.62,6.24l4.01,1.31v50.48v50.48
			l-11.49-5.75c-20.3-10.16-40.32-14.18-64.4-12.93c-15.67,0.81-25.95,2.83-38.48,7.53c-25.77,9.67-46.68,26.74-61.28,50.05
			c-21.15,33.74-36.23,77.1-40.68,116.96c-0.8,7.15-1.27,65.4-1.46,180.24l-0.28,169.67h-47.91
			C3671.19,1316.15,3649.31,1315.83,3648.92,1315.44z M-488.07,1313.32c0-0.38,107.09-186.27,237.97-413.1l237.97-412.4
			l277.33-232.73c152.53-128,277.74-232.89,278.24-233.08c0.5-0.19-1.5,4.86-4.46,11.22c-2.95,6.36-138.47,297.02-301.14,645.91
			l-295.76,634.34l-215.07,0.27C-391.29,1313.89-488.07,1313.7-488.07,1313.32z"/>
	</g>
</g>
</svg>
