<?xml version="1.0" encoding="utf-8"?>
<!-- Generator: Adobe Illustrator 24.1.2, SVG Export Plug-In . SVG Version: 6.00 Build 0)  -->
<svg version="1.1" id="图层_1" xmlns="http://www.w3.org/2000/svg" xmlns:xlink="http://www.w3.org/1999/xlink" x="0px" y="0px"
	 viewBox="0 0 200.4 66.5" style="enable-background:new 0 0 200.4 66.5;" xml:space="preserve">
<style type="text/css">
	.st0{clip-path:url(#SVGID_2_);fill:#00418E;}
	.st1{clip-path:url(#SVGID_4_);fill:#00418E;}
	.st2{clip-path:url(#SVGID_6_);fill:#00418E;}
</style>
<g>
	<g>
		<defs>
			<rect id="SVGID_1_" x="12.01" width="176.37" height="66.5"/>
		</defs>
		<clipPath id="SVGID_2_">
			<use xlink:href="#SVGID_1_"  style="overflow:visible;"/>
		</clipPath>
		<path class="st0" d="M162.21,66.5c1.22,0,2.18-0.96,2.18-2.18V15.71c0-1.22,0.96-2.18,2.18-2.18h8.9c1.22,0,2.79-0.79,3.67-1.66
			l8.9-10.21c0.44-0.52,0.52-1.05,0.26-1.31C188.12,0.17,187.78,0,187.25,0h-49.22c-1.22,0-2.88,0.7-3.67,1.66l-8.9,10.21
			c-0.52,0.61-0.52,1.05-0.26,1.4l0,0c0.17,0.17,0.52,0.26,0.96,0.26h20.6c1.22,0,2.18,0.96,2.18,2.18v1.57v47.04
			c0,0.52,0.17,1.05,0.52,1.4l0,0c0.09,0.09,0.09,0.09,0.17,0.17c0.35,0.35,0.87,0.61,1.48,0.61
			C151.12,66.5,162.21,66.5,162.21,66.5z"/>
	</g>
	<g>
		<defs>
			<rect id="SVGID_3_" x="12.01" width="176.37" height="66.5"/>
		</defs>
		<clipPath id="SVGID_4_">
			<use xlink:href="#SVGID_3_"  style="overflow:visible;"/>
		</clipPath>
		<path class="st1" d="M50.76,66.5h11.08c1.22,0,2.18-0.96,2.18-2.18V2.18c0-0.61-0.26-1.13-0.61-1.48l0,0l0,0
			C63.07,0.26,62.46,0,61.93,0H50.76c-1.22,0-2.18,0.96-2.18,2.18v19.2c0,1.22-0.96,2.18-2.18,2.18H31.3h-1.66
			c-1.22,0-2.18-0.96-2.18-2.18V2.18c0-0.52-0.17-1.05-0.52-1.4C26.59,0.35,25.98,0,25.28,0H14.2c-1.22,0-2.18,0.96-2.18,2.18v62.14
			c0,0.61,0.26,1.05,0.61,1.48c0.44,0.44,0.96,0.7,1.57,0.7h11.08c1.22,0,2.18-0.96,2.18-2.18V40.67c0-1.22,0.96-2.18,2.18-2.18
			H46.4c1.22,0,2.18,0.96,2.18,2.18v1.66v21.99c0,0.61,0.26,1.13,0.61,1.48C49.63,66.15,50.15,66.5,50.76,66.5"/>
	</g>
	<g>
		<defs>
			<rect id="SVGID_5_" x="12.01" width="176.37" height="66.5"/>
		</defs>
		<clipPath id="SVGID_6_">
			<use xlink:href="#SVGID_5_"  style="overflow:visible;"/>
		</clipPath>
		<path class="st2" d="M125.81,66.5c1.05,0,1.48-0.61,1.22-1.48c0-0.09-0.09-0.26-0.17-0.35l-20.51-31.68l-2.09-3.23
			c-0.7-1.05-0.52-2.53,0.26-3.49l21.47-24.61c0.35-0.44,0.52-0.79,0.35-1.13C126.25,0.17,125.81,0,125.2,0h-14.14
			c-1.22,0-2.79,0.7-3.58,1.66L91.52,20.51l-2.62,3.14c-0.79,0.87-1.4,0.7-1.4-0.52V2.18c0-0.52-0.17-0.96-0.52-1.4S86.02,0,85.32,0
			H74.5c-1.22,0-2.18,0.96-2.18,2.18v62.05c0,0.61,0.26,1.22,0.7,1.57c0.44,0.35,0.96,0.61,1.48,0.61h10.82
			c1.22,0,2.18-0.96,2.18-2.18V47.74c0-1.22,0.61-2.88,1.48-3.84l2.27-2.44c0.79-0.87,2.01-0.79,2.62,0.26l2.09,3.32l12.48,19.64
			c0.17,0.26,0.35,0.44,0.61,0.7c0.79,0.7,1.83,1.13,2.79,1.13C111.85,66.5,125.81,66.5,125.81,66.5z"/>
	</g>
</g>
</svg>
